<svg xmlns="http://www.w3.org/2000/svg" fill="none" viewBox="0 0 24 24" strokeWidth={1.5} stroke="black" className="w-6 h-6">
  <path strokeLinecap="round" strokeLinejoin="round" d="M15.666 3.888A2.25 2.25 0 0013.5 2.25h-3c-1.03 0-1.9.693-2.166 1.638M15.666 3.888c0.055 0.194 0.084 0.4 0.084 0.612v0a0.75 0.75 0 01-0.75 0.75H9 0.75 0.75 0 01-0.75-0.75v0c0-0.212 0.03-0.418 0.084-0.612M15.666 3.888c0.646 0.049 1.288 0.11 1.927 0.184 1.1 0.128 1.907 1.077 1.907 2.185V19.5a2.25 2.25 0 01-2.25 2.25H6.75A2.25 2.25 0 014.5 19.5V6.257c0-1.108 0.806-2.057 1.907-2.185a48.208 48.208 0 011.927-0.184" />
</svg>
